G04*
G04 #@! TF.GenerationSoftware,Altium Limited,Altium Designer,24.1.2 (44)*
G04*
G04 Layer_Color=8421504*
%FSLAX44Y44*%
%MOMM*%
G71*
G04*
G04 #@! TF.SameCoordinates,073206A3-7BDE-4070-AB68-1CEBD4695123*
G04*
G04*
G04 #@! TF.FilePolarity,Positive*
G04*
G01*
G75*
%ADD14R,0.8000X0.9000*%
%ADD15R,0.6100X1.2700*%
%ADD16R,3.9100X3.8100*%
%ADD17R,0.6100X1.0200*%
G04:AMPARAMS|DCode=18|XSize=1.55mm|YSize=0.6mm|CornerRadius=0.051mm|HoleSize=0mm|Usage=FLASHONLY|Rotation=90.000|XOffset=0mm|YOffset=0mm|HoleType=Round|Shape=RoundedRectangle|*
%AMROUNDEDRECTD18*
21,1,1.5500,0.4980,0,0,90.0*
21,1,1.4480,0.6000,0,0,90.0*
1,1,0.1020,0.2490,0.7240*
1,1,0.1020,0.2490,-0.7240*
1,1,0.1020,-0.2490,-0.7240*
1,1,0.1020,-0.2490,0.7240*
%
%ADD18ROUNDEDRECTD18*%
%ADD19R,5.6000X2.3000*%
%ADD20R,0.8000X0.7000*%
%ADD21R,1.0000X1.6000*%
%ADD22R,2.2000X2.5000*%
%ADD23R,1.5000X0.6000*%
%ADD24O,0.7500X0.2500*%
%ADD25R,1.7500X1.4500*%
%ADD26R,0.9000X0.8000*%
%ADD27R,1.2000X0.8000*%
%ADD28R,1.0000X2.2000*%
%ADD29R,3.3000X2.2000*%
%ADD30R,1.2190X0.9140*%
G36*
X741483Y911624D02*
X741624Y911483D01*
X741700Y911299D01*
Y911200D01*
Y888800D01*
Y888700D01*
X741624Y888517D01*
X741483Y888376D01*
X741299Y888300D01*
X718700D01*
X718517Y888376D01*
X718376Y888517D01*
X718300Y888700D01*
Y888800D01*
Y911200D01*
Y911299D01*
X718376Y911483D01*
X718517Y911624D01*
X718700Y911700D01*
X741299D01*
X741483Y911624D01*
D02*
G37*
G36*
X671483D02*
X671624Y911483D01*
X671700Y911299D01*
Y911200D01*
Y888800D01*
Y888700D01*
X671624Y888517D01*
X671483Y888376D01*
X671299Y888300D01*
X648700D01*
X648517Y888376D01*
X648376Y888517D01*
X648300Y888700D01*
Y888800D01*
Y911200D01*
Y911299D01*
X648376Y911483D01*
X648517Y911624D01*
X648700Y911700D01*
X671299D01*
X671483Y911624D01*
D02*
G37*
G36*
X601483D02*
X601624Y911483D01*
X601700Y911299D01*
Y911200D01*
Y888800D01*
Y888700D01*
X601624Y888517D01*
X601483Y888376D01*
X601299Y888300D01*
X578700D01*
X578517Y888376D01*
X578376Y888517D01*
X578300Y888700D01*
Y888800D01*
Y911200D01*
Y911299D01*
X578376Y911483D01*
X578517Y911624D01*
X578700Y911700D01*
X601299D01*
X601483Y911624D01*
D02*
G37*
G36*
X531483D02*
X531624Y911483D01*
X531700Y911299D01*
Y911200D01*
Y888800D01*
Y888700D01*
X531624Y888517D01*
X531483Y888376D01*
X531299Y888300D01*
X508700D01*
X508517Y888376D01*
X508376Y888517D01*
X508300Y888700D01*
Y888800D01*
Y911200D01*
Y911299D01*
X508376Y911483D01*
X508517Y911624D01*
X508700Y911700D01*
X531299D01*
X531483Y911624D01*
D02*
G37*
G36*
X461483D02*
X461624Y911483D01*
X461700Y911299D01*
Y911200D01*
Y888800D01*
Y888700D01*
X461624Y888517D01*
X461483Y888376D01*
X461299Y888300D01*
X438700D01*
X438517Y888376D01*
X438376Y888517D01*
X438300Y888700D01*
Y888800D01*
Y911200D01*
Y911299D01*
X438376Y911483D01*
X438517Y911624D01*
X438700Y911700D01*
X461299D01*
X461483Y911624D01*
D02*
G37*
G36*
X391483D02*
X391624Y911483D01*
X391700Y911299D01*
Y911200D01*
Y888800D01*
Y888700D01*
X391624Y888517D01*
X391483Y888376D01*
X391299Y888300D01*
X368700D01*
X368517Y888376D01*
X368376Y888517D01*
X368300Y888700D01*
Y888800D01*
Y911200D01*
Y911299D01*
X368376Y911483D01*
X368517Y911624D01*
X368700Y911700D01*
X391299D01*
X391483Y911624D01*
D02*
G37*
G36*
X741483Y631624D02*
X741624Y631483D01*
X741700Y631299D01*
Y631200D01*
Y608800D01*
Y608700D01*
X741624Y608517D01*
X741483Y608376D01*
X741299Y608300D01*
X718700D01*
X718517Y608376D01*
X718376Y608517D01*
X718300Y608700D01*
Y608800D01*
Y631200D01*
Y631299D01*
X718376Y631483D01*
X718517Y631624D01*
X718700Y631700D01*
X741299D01*
X741483Y631624D01*
D02*
G37*
G36*
X671483D02*
X671624Y631483D01*
X671700Y631299D01*
Y631200D01*
Y608800D01*
Y608700D01*
X671624Y608517D01*
X671483Y608376D01*
X671299Y608300D01*
X648700D01*
X648517Y608376D01*
X648376Y608517D01*
X648300Y608700D01*
Y608800D01*
Y631200D01*
Y631299D01*
X648376Y631483D01*
X648517Y631624D01*
X648700Y631700D01*
X671299D01*
X671483Y631624D01*
D02*
G37*
G36*
X601483D02*
X601624Y631483D01*
X601700Y631299D01*
Y631200D01*
Y608800D01*
Y608700D01*
X601624Y608517D01*
X601483Y608376D01*
X601299Y608300D01*
X578700D01*
X578517Y608376D01*
X578376Y608517D01*
X578300Y608700D01*
Y608800D01*
Y631200D01*
Y631299D01*
X578376Y631483D01*
X578517Y631624D01*
X578700Y631700D01*
X601299D01*
X601483Y631624D01*
D02*
G37*
G36*
X531483D02*
X531624Y631483D01*
X531700Y631299D01*
Y631200D01*
Y608800D01*
Y608700D01*
X531624Y608517D01*
X531483Y608376D01*
X531299Y608300D01*
X508700D01*
X508517Y608376D01*
X508376Y608517D01*
X508300Y608700D01*
Y608800D01*
Y631200D01*
Y631299D01*
X508376Y631483D01*
X508517Y631624D01*
X508700Y631700D01*
X531299D01*
X531483Y631624D01*
D02*
G37*
G36*
X461483D02*
X461624Y631483D01*
X461700Y631299D01*
Y631200D01*
Y608800D01*
Y608700D01*
X461624Y608517D01*
X461483Y608376D01*
X461299Y608300D01*
X438700D01*
X438517Y608376D01*
X438376Y608517D01*
X438300Y608700D01*
Y608800D01*
Y631200D01*
Y631299D01*
X438376Y631483D01*
X438517Y631624D01*
X438700Y631700D01*
X461299D01*
X461483Y631624D01*
D02*
G37*
G36*
X391483D02*
X391624Y631483D01*
X391700Y631299D01*
Y631200D01*
Y608800D01*
Y608700D01*
X391624Y608517D01*
X391483Y608376D01*
X391299Y608300D01*
X368700D01*
X368517Y608376D01*
X368376Y608517D01*
X368300Y608700D01*
Y608800D01*
Y631200D01*
Y631299D01*
X368376Y631483D01*
X368517Y631624D01*
X368700Y631700D01*
X391299D01*
X391483Y631624D01*
D02*
G37*
G36*
X741483Y332624D02*
X741624Y332483D01*
X741700Y332299D01*
Y332200D01*
Y309800D01*
Y309701D01*
X741624Y309517D01*
X741483Y309376D01*
X741299Y309300D01*
X718700D01*
X718517Y309376D01*
X718376Y309517D01*
X718300Y309701D01*
Y309800D01*
Y332200D01*
Y332299D01*
X718376Y332483D01*
X718517Y332624D01*
X718700Y332700D01*
X741299D01*
X741483Y332624D01*
D02*
G37*
G36*
X671483D02*
X671624Y332483D01*
X671700Y332299D01*
Y332200D01*
Y309800D01*
Y309701D01*
X671624Y309517D01*
X671483Y309376D01*
X671299Y309300D01*
X648700D01*
X648517Y309376D01*
X648376Y309517D01*
X648300Y309701D01*
Y309800D01*
Y332200D01*
Y332299D01*
X648376Y332483D01*
X648517Y332624D01*
X648700Y332700D01*
X671299D01*
X671483Y332624D01*
D02*
G37*
G36*
X601483D02*
X601624Y332483D01*
X601700Y332299D01*
Y332200D01*
Y309800D01*
Y309701D01*
X601624Y309517D01*
X601483Y309376D01*
X601299Y309300D01*
X578700D01*
X578517Y309376D01*
X578376Y309517D01*
X578300Y309701D01*
Y309800D01*
Y332200D01*
Y332299D01*
X578376Y332483D01*
X578517Y332624D01*
X578700Y332700D01*
X601299D01*
X601483Y332624D01*
D02*
G37*
G36*
X531483D02*
X531624Y332483D01*
X531700Y332299D01*
Y332200D01*
Y309800D01*
Y309701D01*
X531624Y309517D01*
X531483Y309376D01*
X531299Y309300D01*
X508700D01*
X508517Y309376D01*
X508376Y309517D01*
X508300Y309701D01*
Y309800D01*
Y332200D01*
Y332299D01*
X508376Y332483D01*
X508517Y332624D01*
X508700Y332700D01*
X531299D01*
X531483Y332624D01*
D02*
G37*
G36*
X461483D02*
X461624Y332483D01*
X461700Y332299D01*
Y332200D01*
Y309800D01*
Y309701D01*
X461624Y309517D01*
X461483Y309376D01*
X461299Y309300D01*
X438700D01*
X438517Y309376D01*
X438376Y309517D01*
X438300Y309701D01*
Y309800D01*
Y332200D01*
Y332299D01*
X438376Y332483D01*
X438517Y332624D01*
X438700Y332700D01*
X461299D01*
X461483Y332624D01*
D02*
G37*
G36*
X391483D02*
X391624Y332483D01*
X391700Y332299D01*
Y332200D01*
Y309800D01*
Y309701D01*
X391624Y309517D01*
X391483Y309376D01*
X391299Y309300D01*
X368700D01*
X368517Y309376D01*
X368376Y309517D01*
X368300Y309701D01*
Y309800D01*
Y332200D01*
Y332299D01*
X368376Y332483D01*
X368517Y332624D01*
X368700Y332700D01*
X391299D01*
X391483Y332624D01*
D02*
G37*
D14*
X575000Y1334500D02*
D03*
Y1350500D02*
D03*
X387500Y853000D02*
D03*
Y837000D02*
D03*
Y575500D02*
D03*
Y559500D02*
D03*
X386000Y276000D02*
D03*
Y260000D02*
D03*
X345000Y932000D02*
D03*
Y948000D02*
D03*
Y652000D02*
D03*
Y668000D02*
D03*
Y353000D02*
D03*
Y369000D02*
D03*
X362500Y963000D02*
D03*
Y947000D02*
D03*
X361000Y684000D02*
D03*
Y668000D02*
D03*
Y385000D02*
D03*
Y369000D02*
D03*
X457500Y853000D02*
D03*
Y837000D02*
D03*
Y575500D02*
D03*
Y559500D02*
D03*
X457000Y276000D02*
D03*
Y260000D02*
D03*
X415000Y932000D02*
D03*
Y948000D02*
D03*
X415000Y652000D02*
D03*
Y668000D02*
D03*
X415000Y353000D02*
D03*
Y369000D02*
D03*
X432500Y963000D02*
D03*
Y947000D02*
D03*
X431000Y684000D02*
D03*
Y668000D02*
D03*
Y385000D02*
D03*
Y369000D02*
D03*
X527500Y853000D02*
D03*
Y837000D02*
D03*
Y575500D02*
D03*
Y559500D02*
D03*
X526000Y276000D02*
D03*
Y260000D02*
D03*
X485000Y932000D02*
D03*
Y948000D02*
D03*
Y652000D02*
D03*
Y668000D02*
D03*
Y353000D02*
D03*
Y369000D02*
D03*
X502500Y963000D02*
D03*
Y947000D02*
D03*
X501000Y684000D02*
D03*
Y668000D02*
D03*
Y385000D02*
D03*
Y369000D02*
D03*
X597500Y853000D02*
D03*
Y837000D02*
D03*
Y575500D02*
D03*
Y559500D02*
D03*
X597000Y276000D02*
D03*
Y260000D02*
D03*
X555000Y932000D02*
D03*
Y948000D02*
D03*
X555000Y652000D02*
D03*
Y668000D02*
D03*
X555000Y353000D02*
D03*
Y369000D02*
D03*
X572500Y963000D02*
D03*
Y947000D02*
D03*
X571000Y684000D02*
D03*
Y668000D02*
D03*
Y385000D02*
D03*
Y369000D02*
D03*
X667500Y853000D02*
D03*
Y837000D02*
D03*
Y575500D02*
D03*
Y559500D02*
D03*
X667000Y276000D02*
D03*
Y260000D02*
D03*
X625000Y932000D02*
D03*
Y948000D02*
D03*
Y652000D02*
D03*
Y668000D02*
D03*
Y353000D02*
D03*
Y369000D02*
D03*
X642500Y963000D02*
D03*
Y947000D02*
D03*
X641000Y684000D02*
D03*
Y668000D02*
D03*
Y385000D02*
D03*
Y369000D02*
D03*
X737500Y853000D02*
D03*
Y837000D02*
D03*
Y575500D02*
D03*
Y559500D02*
D03*
X736000Y276000D02*
D03*
Y260000D02*
D03*
X770000Y888000D02*
D03*
Y872000D02*
D03*
Y610500D02*
D03*
Y594500D02*
D03*
X772000Y313000D02*
D03*
Y297000D02*
D03*
X695000Y932000D02*
D03*
Y948000D02*
D03*
X695000Y652000D02*
D03*
Y668000D02*
D03*
X695000Y353000D02*
D03*
Y369000D02*
D03*
X770000Y923000D02*
D03*
Y907000D02*
D03*
X712500Y963000D02*
D03*
Y947000D02*
D03*
X770000Y643000D02*
D03*
Y627000D02*
D03*
X711000Y684000D02*
D03*
Y668000D02*
D03*
X772000Y348000D02*
D03*
Y332000D02*
D03*
X711000Y385000D02*
D03*
Y369000D02*
D03*
X540000Y1745000D02*
D03*
Y1761000D02*
D03*
X799000Y1634000D02*
D03*
Y1650000D02*
D03*
X473000Y1744000D02*
D03*
Y1760000D02*
D03*
X782000Y1650000D02*
D03*
Y1634000D02*
D03*
X809000Y1349000D02*
D03*
Y1365000D02*
D03*
X602500Y1458000D02*
D03*
Y1442000D02*
D03*
X687500Y1458000D02*
D03*
Y1442000D02*
D03*
X447500Y1222000D02*
D03*
Y1238000D02*
D03*
X505000Y1237000D02*
D03*
Y1253000D02*
D03*
X825000Y1332000D02*
D03*
Y1348000D02*
D03*
X575000Y1253000D02*
D03*
Y1237000D02*
D03*
X560000Y1237000D02*
D03*
Y1253000D02*
D03*
X447500Y1319500D02*
D03*
Y1335500D02*
D03*
X505000Y1334500D02*
D03*
Y1350500D02*
D03*
X340000Y1606000D02*
D03*
Y1622000D02*
D03*
Y1640000D02*
D03*
Y1656000D02*
D03*
Y1689000D02*
D03*
Y1673000D02*
D03*
X560000Y1334500D02*
D03*
Y1350500D02*
D03*
X447500Y1419500D02*
D03*
Y1435500D02*
D03*
X505000Y1434500D02*
D03*
Y1450500D02*
D03*
X575000Y1450500D02*
D03*
Y1434500D02*
D03*
X560000Y1434500D02*
D03*
Y1450500D02*
D03*
X477000Y1628000D02*
D03*
Y1612000D02*
D03*
X583000Y1628000D02*
D03*
Y1612000D02*
D03*
D15*
X814950Y1649528D02*
D03*
X827650Y1649528D02*
D03*
X840350D02*
D03*
X853050Y1649528D02*
D03*
D16*
X834000Y1616000D02*
D03*
D17*
X853050Y1594918D02*
D03*
X840350Y1594918D02*
D03*
X827650D02*
D03*
X814950Y1594918D02*
D03*
D18*
X500950Y593000D02*
D03*
X513650D02*
D03*
X526350D02*
D03*
X539050D02*
D03*
Y647000D02*
D03*
X526350D02*
D03*
X513650D02*
D03*
X500950D02*
D03*
X360950Y927000D02*
D03*
X373650D02*
D03*
X386350D02*
D03*
X399050D02*
D03*
Y873000D02*
D03*
X386350D02*
D03*
X373650D02*
D03*
X360950D02*
D03*
Y647000D02*
D03*
X373650D02*
D03*
X386350D02*
D03*
X399050D02*
D03*
Y593000D02*
D03*
X386350D02*
D03*
X373650D02*
D03*
X360950D02*
D03*
Y348000D02*
D03*
X373650D02*
D03*
X386350D02*
D03*
X399050D02*
D03*
Y294000D02*
D03*
X386350D02*
D03*
X373650D02*
D03*
X360950D02*
D03*
X430950Y927000D02*
D03*
X443650D02*
D03*
X456350D02*
D03*
X469050D02*
D03*
Y873000D02*
D03*
X456350D02*
D03*
X443650D02*
D03*
X430950D02*
D03*
Y647000D02*
D03*
X443650D02*
D03*
X456350D02*
D03*
X469050D02*
D03*
Y593000D02*
D03*
X456350D02*
D03*
X443650D02*
D03*
X430950D02*
D03*
Y348000D02*
D03*
X443650D02*
D03*
X456350D02*
D03*
X469050D02*
D03*
Y294000D02*
D03*
X456350D02*
D03*
X443650D02*
D03*
X430950D02*
D03*
X500950Y927000D02*
D03*
X513650D02*
D03*
X526350D02*
D03*
X539050D02*
D03*
Y873000D02*
D03*
X526350D02*
D03*
X513650D02*
D03*
X500950D02*
D03*
Y348000D02*
D03*
X513650D02*
D03*
X526350D02*
D03*
X539050D02*
D03*
Y294000D02*
D03*
X526350D02*
D03*
X513650D02*
D03*
X500950D02*
D03*
X570950Y927000D02*
D03*
X583650D02*
D03*
X596350D02*
D03*
X609050D02*
D03*
Y873000D02*
D03*
X596350D02*
D03*
X583650D02*
D03*
X570950D02*
D03*
Y647000D02*
D03*
X583650D02*
D03*
X596350D02*
D03*
X609050D02*
D03*
Y593000D02*
D03*
X596350D02*
D03*
X583650D02*
D03*
X570950D02*
D03*
Y348000D02*
D03*
X583650D02*
D03*
X596350D02*
D03*
X609050D02*
D03*
Y294000D02*
D03*
X596350D02*
D03*
X583650D02*
D03*
X570950D02*
D03*
X640950Y927000D02*
D03*
X653650D02*
D03*
X666350D02*
D03*
X679050D02*
D03*
Y873000D02*
D03*
X666350D02*
D03*
X653650D02*
D03*
X640950D02*
D03*
Y647000D02*
D03*
X653650D02*
D03*
X666350D02*
D03*
X679050D02*
D03*
Y593000D02*
D03*
X666350D02*
D03*
X653650D02*
D03*
X640950D02*
D03*
Y348000D02*
D03*
X653650D02*
D03*
X666350D02*
D03*
X679050D02*
D03*
Y294000D02*
D03*
X666350D02*
D03*
X653650D02*
D03*
X640950D02*
D03*
X710950Y927000D02*
D03*
X723650D02*
D03*
X736350D02*
D03*
X749050D02*
D03*
Y873000D02*
D03*
X736350D02*
D03*
X723650D02*
D03*
X710950D02*
D03*
Y647000D02*
D03*
X723650D02*
D03*
X736350D02*
D03*
X749050D02*
D03*
Y593000D02*
D03*
X736350D02*
D03*
X723650D02*
D03*
X710950D02*
D03*
Y348000D02*
D03*
X723650D02*
D03*
X736350D02*
D03*
X749050D02*
D03*
Y294000D02*
D03*
X736350D02*
D03*
X723650D02*
D03*
X710950D02*
D03*
D19*
X420000Y527000D02*
D03*
Y453000D02*
D03*
Y807000D02*
D03*
Y733000D02*
D03*
Y1092000D02*
D03*
Y1018000D02*
D03*
D20*
X522000Y1791000D02*
D03*
X540000D02*
D03*
X455000D02*
D03*
X473000D02*
D03*
D21*
X831000Y1669000D02*
D03*
X801000D02*
D03*
X728000D02*
D03*
X698000D02*
D03*
D22*
X888000Y1641500D02*
D03*
Y1594500D02*
D03*
D23*
X850500Y1320550D02*
D03*
Y1333250D02*
D03*
Y1345950D02*
D03*
Y1358650D02*
D03*
Y1371350D02*
D03*
Y1384050D02*
D03*
Y1396750D02*
D03*
Y1409450D02*
D03*
X904500Y1409450D02*
D03*
X904500Y1396750D02*
D03*
Y1384050D02*
D03*
X904500Y1371350D02*
D03*
X904500Y1358650D02*
D03*
X904500Y1345950D02*
D03*
X904500Y1333250D02*
D03*
Y1320550D02*
D03*
D24*
X764000Y1547500D02*
D03*
Y1542500D02*
D03*
Y1537500D02*
D03*
Y1532500D02*
D03*
X794000Y1547500D02*
D03*
Y1542500D02*
D03*
Y1537500D02*
D03*
Y1532500D02*
D03*
D25*
X779000Y1540000D02*
D03*
D26*
X754000Y1563000D02*
D03*
X770000D02*
D03*
X807000D02*
D03*
X791000D02*
D03*
D27*
X488500Y1235000D02*
D03*
X466500Y1245000D02*
D03*
X488500Y1255000D02*
D03*
X543500D02*
D03*
X521500Y1245000D02*
D03*
X543500Y1235000D02*
D03*
X488500Y1332500D02*
D03*
X466500Y1342500D02*
D03*
X488500Y1352500D02*
D03*
X543500D02*
D03*
X521500Y1342500D02*
D03*
X543500Y1332500D02*
D03*
X488500Y1432500D02*
D03*
X466500Y1442500D02*
D03*
X488500Y1452500D02*
D03*
X543500D02*
D03*
X521500Y1442500D02*
D03*
X543500Y1432500D02*
D03*
D28*
X622000Y1462500D02*
D03*
X645000D02*
D03*
X668000D02*
D03*
D29*
X645000Y1522500D02*
D03*
D30*
X380000Y1683617D02*
D03*
Y1716383D02*
D03*
X485000Y1683617D02*
D03*
Y1716383D02*
D03*
M02*
