M48
;Layer_Color=9474304
;FILE_FORMAT=4:4
METRIC,LZ
;TYPE=PLATED
T01F00S00C0.2000
T02F00S00C0.3000
T03F00S00C0.7000
T04F00S00C0.7112
T05F00S00C0.9000
T06F00S00C1.0000
T07F00S00C1.1900
T08F00S00C1.2000
T09F00S00C1.4000
T10F00S00C3.2000
%
T01
X003605Y003145
X003735
Y003275
X003605
X003865
Y003145
X003995
Y003275
X004305
X004435
X004565
X004695
Y003145
X004565
X004435
X004305
X005005
X005135
Y003275
X005005
X005265
X005395
Y003145
X005265
X005705
X005835
Y003275
X005705
X005965
X006095
Y003145
X005965
X006405
X006535
Y003275
X006405
X006665
X006795
Y003145
X006665
X007105
X007235
Y003275
X007105
X007365
X007495
Y003145
X007365
Y006135
X007495
Y006265
X007365
X007235
X007105
Y006135
X007235
X006795
X006665
Y006265
X006795
X006535
X006405
Y006135
X006535
X006095
X005965
Y006265
X006095
X005835
X005705
Y006135
X005835
X005395
X005265
X005135
X005005
Y006265
X005135
X005265
X005395
X004695
X004565
X004435
X004305
Y006135
X004435
X004565
X004695
X003995
Y006265
X003865
X003735
X003605
Y006135
X003735
X003865
Y008935
Y009065
X003735
X003605
Y008935
X003735
X003995
Y009065
X004305
X004435
X004565
X004695
Y008935
X004565
X004435
X004305
X005005
X005135
Y009065
X005005
X005265
X005395
Y008935
X005265
X005705
X005835
Y009065
X005705
X005965
X006095
Y008935
X005965
X006405
X006535
Y009065
X006405
X006665
X006795
Y008935
X006665
X007105
X007235
Y009065
X007105
X007365
X007495
Y008935
X007365
T02
X00391Y0026
X00374Y00285
X00356Y00385
X00345Y00375
X00415
X00426Y00385
X00399Y00357
X00403Y00294
X00444Y00285
X00473Y00294
X00462Y0026
X00531
X00514Y00285
X00543Y00294
X00584Y00285
X00613Y00294
X00602Y0026
X00672
X00654Y00285
X00683Y00294
X00724Y00285
X00753Y00294
X00741Y0026
X00753Y00348
X00767
X00679Y00357
X00695Y00375
X00705Y00385
X00635
X00625Y00375
X00609Y00357
X00539
X00555Y00375
X00566Y00385
X00496
X00485Y00375
X00469Y00357
X00452Y0056
X00444Y00584
X00473Y00593
X00514Y00584
X00522Y0056
X00543Y00593
X00584Y00584
X00592Y0056
X00613Y00593
X00654Y00584
X00662Y0056
X00683Y00593
X00724Y00584
X00732Y0056
X00753Y00593
X00749Y00656
X0077Y00649
X00679Y00656
X00695Y00674
X00705Y00684
X00635
X00625Y00674
X00609Y00656
X00539
X00555Y00674
X00565Y00684
X00495
X00485Y00673
X00469Y00656
X00399
X00415Y00674
X00426Y00684
X00403Y00593
X00374Y00584
X00382Y0056
X00355Y00684
X00345Y00674
X00382Y00836
X00374Y00864
X00357Y00963
X00345Y00954
X00415
X00427Y00963
X00399Y00936
X00403Y00873
X00444Y00864
X00452Y00836
X00473Y00873
X00514Y00864
X00522Y00836
X00543Y00873
X00584Y00864
X00592Y00836
X00613Y00873
X00654Y00864
X00662Y00836
X00683Y00873
X00724Y00864
X00732Y00836
X00753Y00873
X00749Y00936
X0077Y0093
X00707Y00963
X00695Y00954
X00679Y00936
X00637Y00963
X00625Y00954
X00609Y00936
X00567Y00963
X00555Y00954
X00539Y00936
X00497Y00963
X00485Y00954
X00469Y00936
X008815Y0132
X0088Y01333
X00888Y01346
X00834Y01385
X00821594Y01385242
X00779Y01531
X007805Y01563
X00665Y01581
X00637
X00645Y0145
X006825Y014425
X006075
X005525Y014525
X005525Y013525
X005525Y01255
X004525Y012225
X004525Y0132
X004525Y0142
X00346Y01605
Y01639
Y01689
X00449Y01791
X00516
X00572Y01721
X00642Y01672
X006525Y0159
X00588Y01612
X00482Y01611
T03
X00285Y00365
Y00395
X00322Y0038
Y0041
Y0044
Y0047
X00285Y00455
Y00425
Y00645
Y00675
Y00705
Y00735
X00322Y0075
Y0072
Y0069
Y0066
Y00945
Y00975
Y01005
Y01035
X00285Y0102
Y0099
Y0096
Y0093
Y0161
Y0164
Y0167
X00322Y01685
Y01655
Y01625
T04
X008225Y01755
T05
X008996Y0065
Y006754
Y007008
Y007262
Y007516
Y00777
X00925
Y007516
Y007262
Y007008
Y006754
Y0065
X009746
X01
Y006754
Y007008
Y007262
Y007516
Y00777
X009746
Y007516
Y007262
Y007008
Y006754
Y008024
X01
Y008278
Y008532
Y008786
Y00904
Y009294
Y009548
Y009802
Y010056
Y01031
Y010564
Y010818
Y011072
Y011326
X009746
Y011072
Y010818
Y010564
Y01031
Y010056
Y009802
Y009548
Y009294
Y00904
Y008786
Y008532
Y008278
X00925
X008996
Y008024
X00925
Y008532
X008996
Y008786
Y00904
Y009294
Y009548
Y009802
Y010056
Y01031
Y010564
Y010818
Y011072
Y011326
X00925
Y011072
Y010818
Y010564
Y01031
Y010056
Y009802
Y009548
Y009294
Y00904
Y008786
T06
X00975Y012525
X010004
X010004Y012779
X00975Y012779
Y013033
X010004
Y013287
Y013541
X00975
Y013795
Y014049
Y014303
Y014557
Y014811
X010004
Y014557
Y014303
Y014049
Y013795
X00975Y013287
T07
X004248Y016219
Y016473
Y016727
Y016981
X005298
Y016727
Y016473
Y016219
T08
X006234Y017
X006488
X006742
X006996
X00725
X007504
X007758
X008012
X008266
X00852
X008774
X009028
T09
X00335Y00525
Y005631
Y0080595
Y0084405
Y0109
Y011281
Y01245
Y012831
Y01345
Y013831
Y01445
Y014831
X0097Y0160095
Y0163905
T10
X003Y003
X01
X003Y0175
X01
M30
