G04*
G04 #@! TF.GenerationSoftware,Altium Limited,Altium Designer,24.1.2 (44)*
G04*
G04 Layer_Color=8388736*
%FSLAX44Y44*%
%MOMM*%
G71*
G04*
G04 #@! TF.SameCoordinates,073206A3-7BDE-4070-AB68-1CEBD4695123*
G04*
G04*
G04 #@! TF.FilePolarity,Negative*
G04*
G01*
G75*
G04:AMPARAMS|DCode=18|XSize=1.55mm|YSize=0.6mm|CornerRadius=0.051mm|HoleSize=0mm|Usage=FLASHONLY|Rotation=90.000|XOffset=0mm|YOffset=0mm|HoleType=Round|Shape=RoundedRectangle|*
%AMROUNDEDRECTD18*
21,1,1.5500,0.4980,0,0,90.0*
21,1,1.4480,0.6000,0,0,90.0*
1,1,0.1020,0.2490,0.7240*
1,1,0.1020,0.2490,-0.7240*
1,1,0.1020,-0.2490,-0.7240*
1,1,0.1020,-0.2490,0.7240*
%
%ADD18ROUNDEDRECTD18*%
%ADD19R,5.6000X2.3000*%
%ADD23R,1.5000X0.6000*%
%ADD31R,1.0032X1.1032*%
%ADD32R,0.8132X1.4732*%
%ADD33R,4.1132X4.0132*%
%ADD34R,0.8132X1.2232*%
%ADD35R,1.0032X0.9032*%
%ADD36R,1.2032X1.8032*%
%ADD37R,2.4032X2.7032*%
%ADD38O,0.9532X0.4532*%
%ADD39R,1.9532X1.6532*%
%ADD40R,1.1032X1.0032*%
%ADD41R,1.4032X1.0032*%
%ADD42R,1.2032X2.4032*%
%ADD43R,3.5032X2.4032*%
%ADD44R,1.4222X1.1172*%
%ADD45C,2.0000*%
%ADD46C,0.2032*%
%ADD47C,1.6032*%
%ADD48O,2.2032X3.2032*%
%ADD49O,2.2032X1.8032*%
%ADD50C,2.9000*%
%ADD51C,1.8400*%
%ADD52R,1.8400X1.8400*%
%ADD53C,7.2032*%
%ADD54C,0.5000*%
G36*
X741483Y911624D02*
X741624Y911483D01*
X741700Y911299D01*
Y911200D01*
Y888800D01*
Y888700D01*
X741624Y888517D01*
X741483Y888376D01*
X741299Y888300D01*
X718700D01*
X718517Y888376D01*
X718376Y888517D01*
X718300Y888700D01*
Y888800D01*
Y911200D01*
Y911299D01*
X718376Y911483D01*
X718517Y911624D01*
X718700Y911700D01*
X741299D01*
X741483Y911624D01*
D02*
G37*
G36*
X671483D02*
X671624Y911483D01*
X671700Y911299D01*
Y911200D01*
Y888800D01*
Y888700D01*
X671624Y888517D01*
X671483Y888376D01*
X671299Y888300D01*
X648700D01*
X648517Y888376D01*
X648376Y888517D01*
X648300Y888700D01*
Y888800D01*
Y911200D01*
Y911299D01*
X648376Y911483D01*
X648517Y911624D01*
X648700Y911700D01*
X671299D01*
X671483Y911624D01*
D02*
G37*
G36*
X601483D02*
X601624Y911483D01*
X601700Y911299D01*
Y911200D01*
Y888800D01*
Y888700D01*
X601624Y888517D01*
X601483Y888376D01*
X601299Y888300D01*
X578700D01*
X578517Y888376D01*
X578376Y888517D01*
X578300Y888700D01*
Y888800D01*
Y911200D01*
Y911299D01*
X578376Y911483D01*
X578517Y911624D01*
X578700Y911700D01*
X601299D01*
X601483Y911624D01*
D02*
G37*
G36*
X531483D02*
X531624Y911483D01*
X531700Y911299D01*
Y911200D01*
Y888800D01*
Y888700D01*
X531624Y888517D01*
X531483Y888376D01*
X531299Y888300D01*
X508700D01*
X508517Y888376D01*
X508376Y888517D01*
X508300Y888700D01*
Y888800D01*
Y911200D01*
Y911299D01*
X508376Y911483D01*
X508517Y911624D01*
X508700Y911700D01*
X531299D01*
X531483Y911624D01*
D02*
G37*
G36*
X461483D02*
X461624Y911483D01*
X461700Y911299D01*
Y911200D01*
Y888800D01*
Y888700D01*
X461624Y888517D01*
X461483Y888376D01*
X461299Y888300D01*
X438700D01*
X438517Y888376D01*
X438376Y888517D01*
X438300Y888700D01*
Y888800D01*
Y911200D01*
Y911299D01*
X438376Y911483D01*
X438517Y911624D01*
X438700Y911700D01*
X461299D01*
X461483Y911624D01*
D02*
G37*
G36*
X391483D02*
X391624Y911483D01*
X391700Y911299D01*
Y911200D01*
Y888800D01*
Y888700D01*
X391624Y888517D01*
X391483Y888376D01*
X391299Y888300D01*
X368700D01*
X368517Y888376D01*
X368376Y888517D01*
X368300Y888700D01*
Y888800D01*
Y911200D01*
Y911299D01*
X368376Y911483D01*
X368517Y911624D01*
X368700Y911700D01*
X391299D01*
X391483Y911624D01*
D02*
G37*
G36*
X741483Y631624D02*
X741624Y631483D01*
X741700Y631299D01*
Y631200D01*
Y608800D01*
Y608700D01*
X741624Y608517D01*
X741483Y608376D01*
X741299Y608300D01*
X718700D01*
X718517Y608376D01*
X718376Y608517D01*
X718300Y608700D01*
Y608800D01*
Y631200D01*
Y631299D01*
X718376Y631483D01*
X718517Y631624D01*
X718700Y631700D01*
X741299D01*
X741483Y631624D01*
D02*
G37*
G36*
X671483D02*
X671624Y631483D01*
X671700Y631299D01*
Y631200D01*
Y608800D01*
Y608700D01*
X671624Y608517D01*
X671483Y608376D01*
X671299Y608300D01*
X648700D01*
X648517Y608376D01*
X648376Y608517D01*
X648300Y608700D01*
Y608800D01*
Y631200D01*
Y631299D01*
X648376Y631483D01*
X648517Y631624D01*
X648700Y631700D01*
X671299D01*
X671483Y631624D01*
D02*
G37*
G36*
X601483D02*
X601624Y631483D01*
X601700Y631299D01*
Y631200D01*
Y608800D01*
Y608700D01*
X601624Y608517D01*
X601483Y608376D01*
X601299Y608300D01*
X578700D01*
X578517Y608376D01*
X578376Y608517D01*
X578300Y608700D01*
Y608800D01*
Y631200D01*
Y631299D01*
X578376Y631483D01*
X578517Y631624D01*
X578700Y631700D01*
X601299D01*
X601483Y631624D01*
D02*
G37*
G36*
X531483D02*
X531624Y631483D01*
X531700Y631299D01*
Y631200D01*
Y608800D01*
Y608700D01*
X531624Y608517D01*
X531483Y608376D01*
X531299Y608300D01*
X508700D01*
X508517Y608376D01*
X508376Y608517D01*
X508300Y608700D01*
Y608800D01*
Y631200D01*
Y631299D01*
X508376Y631483D01*
X508517Y631624D01*
X508700Y631700D01*
X531299D01*
X531483Y631624D01*
D02*
G37*
G36*
X461483D02*
X461624Y631483D01*
X461700Y631299D01*
Y631200D01*
Y608800D01*
Y608700D01*
X461624Y608517D01*
X461483Y608376D01*
X461299Y608300D01*
X438700D01*
X438517Y608376D01*
X438376Y608517D01*
X438300Y608700D01*
Y608800D01*
Y631200D01*
Y631299D01*
X438376Y631483D01*
X438517Y631624D01*
X438700Y631700D01*
X461299D01*
X461483Y631624D01*
D02*
G37*
G36*
X391483D02*
X391624Y631483D01*
X391700Y631299D01*
Y631200D01*
Y608800D01*
Y608700D01*
X391624Y608517D01*
X391483Y608376D01*
X391299Y608300D01*
X368700D01*
X368517Y608376D01*
X368376Y608517D01*
X368300Y608700D01*
Y608800D01*
Y631200D01*
Y631299D01*
X368376Y631483D01*
X368517Y631624D01*
X368700Y631700D01*
X391299D01*
X391483Y631624D01*
D02*
G37*
G36*
X741483Y332624D02*
X741624Y332483D01*
X741700Y332299D01*
Y332200D01*
Y309800D01*
Y309701D01*
X741624Y309517D01*
X741483Y309376D01*
X741299Y309300D01*
X718700D01*
X718517Y309376D01*
X718376Y309517D01*
X718300Y309701D01*
Y309800D01*
Y332200D01*
Y332299D01*
X718376Y332483D01*
X718517Y332624D01*
X718700Y332700D01*
X741299D01*
X741483Y332624D01*
D02*
G37*
G36*
X671483D02*
X671624Y332483D01*
X671700Y332299D01*
Y332200D01*
Y309800D01*
Y309701D01*
X671624Y309517D01*
X671483Y309376D01*
X671299Y309300D01*
X648700D01*
X648517Y309376D01*
X648376Y309517D01*
X648300Y309701D01*
Y309800D01*
Y332200D01*
Y332299D01*
X648376Y332483D01*
X648517Y332624D01*
X648700Y332700D01*
X671299D01*
X671483Y332624D01*
D02*
G37*
G36*
X601483D02*
X601624Y332483D01*
X601700Y332299D01*
Y332200D01*
Y309800D01*
Y309701D01*
X601624Y309517D01*
X601483Y309376D01*
X601299Y309300D01*
X578700D01*
X578517Y309376D01*
X578376Y309517D01*
X578300Y309701D01*
Y309800D01*
Y332200D01*
Y332299D01*
X578376Y332483D01*
X578517Y332624D01*
X578700Y332700D01*
X601299D01*
X601483Y332624D01*
D02*
G37*
G36*
X531483D02*
X531624Y332483D01*
X531700Y332299D01*
Y332200D01*
Y309800D01*
Y309701D01*
X531624Y309517D01*
X531483Y309376D01*
X531299Y309300D01*
X508700D01*
X508517Y309376D01*
X508376Y309517D01*
X508300Y309701D01*
Y309800D01*
Y332200D01*
Y332299D01*
X508376Y332483D01*
X508517Y332624D01*
X508700Y332700D01*
X531299D01*
X531483Y332624D01*
D02*
G37*
G36*
X461483D02*
X461624Y332483D01*
X461700Y332299D01*
Y332200D01*
Y309800D01*
Y309701D01*
X461624Y309517D01*
X461483Y309376D01*
X461299Y309300D01*
X438700D01*
X438517Y309376D01*
X438376Y309517D01*
X438300Y309701D01*
Y309800D01*
Y332200D01*
Y332299D01*
X438376Y332483D01*
X438517Y332624D01*
X438700Y332700D01*
X461299D01*
X461483Y332624D01*
D02*
G37*
G36*
X391483D02*
X391624Y332483D01*
X391700Y332299D01*
Y332200D01*
Y309800D01*
Y309701D01*
X391624Y309517D01*
X391483Y309376D01*
X391299Y309300D01*
X368700D01*
X368517Y309376D01*
X368376Y309517D01*
X368300Y309701D01*
Y309800D01*
Y332200D01*
Y332299D01*
X368376Y332483D01*
X368517Y332624D01*
X368700Y332700D01*
X391299D01*
X391483Y332624D01*
D02*
G37*
D18*
X500950Y593000D02*
D03*
X513650D02*
D03*
X526350D02*
D03*
X539050D02*
D03*
Y647000D02*
D03*
X526350D02*
D03*
X513650D02*
D03*
X500950D02*
D03*
X360950Y927000D02*
D03*
X373650D02*
D03*
X386350D02*
D03*
X399050D02*
D03*
Y873000D02*
D03*
X386350D02*
D03*
X373650D02*
D03*
X360950D02*
D03*
Y647000D02*
D03*
X373650D02*
D03*
X386350D02*
D03*
X399050D02*
D03*
Y593000D02*
D03*
X386350D02*
D03*
X373650D02*
D03*
X360950D02*
D03*
Y348000D02*
D03*
X373650D02*
D03*
X386350D02*
D03*
X399050D02*
D03*
Y294000D02*
D03*
X386350D02*
D03*
X373650D02*
D03*
X360950D02*
D03*
X430950Y927000D02*
D03*
X443650D02*
D03*
X456350D02*
D03*
X469050D02*
D03*
Y873000D02*
D03*
X456350D02*
D03*
X443650D02*
D03*
X430950D02*
D03*
Y647000D02*
D03*
X443650D02*
D03*
X456350D02*
D03*
X469050D02*
D03*
Y593000D02*
D03*
X456350D02*
D03*
X443650D02*
D03*
X430950D02*
D03*
Y348000D02*
D03*
X443650D02*
D03*
X456350D02*
D03*
X469050D02*
D03*
Y294000D02*
D03*
X456350D02*
D03*
X443650D02*
D03*
X430950D02*
D03*
X500950Y927000D02*
D03*
X513650D02*
D03*
X526350D02*
D03*
X539050D02*
D03*
Y873000D02*
D03*
X526350D02*
D03*
X513650D02*
D03*
X500950D02*
D03*
Y348000D02*
D03*
X513650D02*
D03*
X526350D02*
D03*
X539050D02*
D03*
Y294000D02*
D03*
X526350D02*
D03*
X513650D02*
D03*
X500950D02*
D03*
X570950Y927000D02*
D03*
X583650D02*
D03*
X596350D02*
D03*
X609050D02*
D03*
Y873000D02*
D03*
X596350D02*
D03*
X583650D02*
D03*
X570950D02*
D03*
Y647000D02*
D03*
X583650D02*
D03*
X596350D02*
D03*
X609050D02*
D03*
Y593000D02*
D03*
X596350D02*
D03*
X583650D02*
D03*
X570950D02*
D03*
Y348000D02*
D03*
X583650D02*
D03*
X596350D02*
D03*
X609050D02*
D03*
Y294000D02*
D03*
X596350D02*
D03*
X583650D02*
D03*
X570950D02*
D03*
X640950Y927000D02*
D03*
X653650D02*
D03*
X666350D02*
D03*
X679050D02*
D03*
Y873000D02*
D03*
X666350D02*
D03*
X653650D02*
D03*
X640950D02*
D03*
Y647000D02*
D03*
X653650D02*
D03*
X666350D02*
D03*
X679050D02*
D03*
Y593000D02*
D03*
X666350D02*
D03*
X653650D02*
D03*
X640950D02*
D03*
Y348000D02*
D03*
X653650D02*
D03*
X666350D02*
D03*
X679050D02*
D03*
Y294000D02*
D03*
X666350D02*
D03*
X653650D02*
D03*
X640950D02*
D03*
X710950Y927000D02*
D03*
X723650D02*
D03*
X736350D02*
D03*
X749050D02*
D03*
Y873000D02*
D03*
X736350D02*
D03*
X723650D02*
D03*
X710950D02*
D03*
Y647000D02*
D03*
X723650D02*
D03*
X736350D02*
D03*
X749050D02*
D03*
Y593000D02*
D03*
X736350D02*
D03*
X723650D02*
D03*
X710950D02*
D03*
Y348000D02*
D03*
X723650D02*
D03*
X736350D02*
D03*
X749050D02*
D03*
Y294000D02*
D03*
X736350D02*
D03*
X723650D02*
D03*
X710950D02*
D03*
D19*
X420000Y527000D02*
D03*
Y453000D02*
D03*
Y807000D02*
D03*
Y733000D02*
D03*
Y1092000D02*
D03*
Y1018000D02*
D03*
D23*
X850500Y1320550D02*
D03*
Y1333250D02*
D03*
Y1345950D02*
D03*
Y1358650D02*
D03*
Y1371350D02*
D03*
Y1384050D02*
D03*
Y1396750D02*
D03*
Y1409450D02*
D03*
X904500Y1409450D02*
D03*
X904500Y1396750D02*
D03*
Y1384050D02*
D03*
X904500Y1371350D02*
D03*
X904500Y1358650D02*
D03*
X904500Y1345950D02*
D03*
X904500Y1333250D02*
D03*
Y1320550D02*
D03*
D31*
X575000Y1334500D02*
D03*
Y1350500D02*
D03*
X387500Y853000D02*
D03*
Y837000D02*
D03*
Y575500D02*
D03*
Y559500D02*
D03*
X386000Y276000D02*
D03*
Y260000D02*
D03*
X345000Y932000D02*
D03*
Y948000D02*
D03*
Y652000D02*
D03*
Y668000D02*
D03*
Y353000D02*
D03*
Y369000D02*
D03*
X362500Y963000D02*
D03*
Y947000D02*
D03*
X361000Y684000D02*
D03*
Y668000D02*
D03*
Y385000D02*
D03*
Y369000D02*
D03*
X457500Y853000D02*
D03*
Y837000D02*
D03*
Y575500D02*
D03*
Y559500D02*
D03*
X457000Y276000D02*
D03*
Y260000D02*
D03*
X415000Y932000D02*
D03*
Y948000D02*
D03*
X415000Y652000D02*
D03*
Y668000D02*
D03*
X415000Y353000D02*
D03*
Y369000D02*
D03*
X432500Y963000D02*
D03*
Y947000D02*
D03*
X431000Y684000D02*
D03*
Y668000D02*
D03*
Y385000D02*
D03*
Y369000D02*
D03*
X527500Y853000D02*
D03*
Y837000D02*
D03*
Y575500D02*
D03*
Y559500D02*
D03*
X526000Y276000D02*
D03*
Y260000D02*
D03*
X485000Y932000D02*
D03*
Y948000D02*
D03*
Y652000D02*
D03*
Y668000D02*
D03*
Y353000D02*
D03*
Y369000D02*
D03*
X502500Y963000D02*
D03*
Y947000D02*
D03*
X501000Y684000D02*
D03*
Y668000D02*
D03*
Y385000D02*
D03*
Y369000D02*
D03*
X597500Y853000D02*
D03*
Y837000D02*
D03*
Y575500D02*
D03*
Y559500D02*
D03*
X597000Y276000D02*
D03*
Y260000D02*
D03*
X555000Y932000D02*
D03*
Y948000D02*
D03*
X555000Y652000D02*
D03*
Y668000D02*
D03*
X555000Y353000D02*
D03*
Y369000D02*
D03*
X572500Y963000D02*
D03*
Y947000D02*
D03*
X571000Y684000D02*
D03*
Y668000D02*
D03*
Y385000D02*
D03*
Y369000D02*
D03*
X667500Y853000D02*
D03*
Y837000D02*
D03*
Y575500D02*
D03*
Y559500D02*
D03*
X667000Y276000D02*
D03*
Y260000D02*
D03*
X625000Y932000D02*
D03*
Y948000D02*
D03*
Y652000D02*
D03*
Y668000D02*
D03*
Y353000D02*
D03*
Y369000D02*
D03*
X642500Y963000D02*
D03*
Y947000D02*
D03*
X641000Y684000D02*
D03*
Y668000D02*
D03*
Y385000D02*
D03*
Y369000D02*
D03*
X737500Y853000D02*
D03*
Y837000D02*
D03*
Y575500D02*
D03*
Y559500D02*
D03*
X736000Y276000D02*
D03*
Y260000D02*
D03*
X770000Y888000D02*
D03*
Y872000D02*
D03*
Y610500D02*
D03*
Y594500D02*
D03*
X772000Y313000D02*
D03*
Y297000D02*
D03*
X695000Y932000D02*
D03*
Y948000D02*
D03*
X695000Y652000D02*
D03*
Y668000D02*
D03*
X695000Y353000D02*
D03*
Y369000D02*
D03*
X770000Y923000D02*
D03*
Y907000D02*
D03*
X712500Y963000D02*
D03*
Y947000D02*
D03*
X770000Y643000D02*
D03*
Y627000D02*
D03*
X711000Y684000D02*
D03*
Y668000D02*
D03*
X772000Y348000D02*
D03*
Y332000D02*
D03*
X711000Y385000D02*
D03*
Y369000D02*
D03*
X540000Y1745000D02*
D03*
Y1761000D02*
D03*
X799000Y1634000D02*
D03*
Y1650000D02*
D03*
X473000Y1744000D02*
D03*
Y1760000D02*
D03*
X782000Y1650000D02*
D03*
Y1634000D02*
D03*
X809000Y1349000D02*
D03*
Y1365000D02*
D03*
X602500Y1458000D02*
D03*
Y1442000D02*
D03*
X687500Y1458000D02*
D03*
Y1442000D02*
D03*
X447500Y1222000D02*
D03*
Y1238000D02*
D03*
X505000Y1237000D02*
D03*
Y1253000D02*
D03*
X825000Y1332000D02*
D03*
Y1348000D02*
D03*
X575000Y1253000D02*
D03*
Y1237000D02*
D03*
X560000Y1237000D02*
D03*
Y1253000D02*
D03*
X447500Y1319500D02*
D03*
Y1335500D02*
D03*
X505000Y1334500D02*
D03*
Y1350500D02*
D03*
X340000Y1606000D02*
D03*
Y1622000D02*
D03*
Y1640000D02*
D03*
Y1656000D02*
D03*
Y1689000D02*
D03*
Y1673000D02*
D03*
X560000Y1334500D02*
D03*
Y1350500D02*
D03*
X447500Y1419500D02*
D03*
Y1435500D02*
D03*
X505000Y1434500D02*
D03*
Y1450500D02*
D03*
X575000Y1450500D02*
D03*
Y1434500D02*
D03*
X560000Y1434500D02*
D03*
Y1450500D02*
D03*
X477000Y1628000D02*
D03*
Y1612000D02*
D03*
X583000Y1628000D02*
D03*
Y1612000D02*
D03*
D32*
X814950Y1649528D02*
D03*
X827650Y1649528D02*
D03*
X840350D02*
D03*
X853050Y1649528D02*
D03*
D33*
X834000Y1616000D02*
D03*
D34*
X853050Y1594918D02*
D03*
X840350Y1594918D02*
D03*
X827650D02*
D03*
X814950Y1594918D02*
D03*
D35*
X522000Y1791000D02*
D03*
X540000D02*
D03*
X455000D02*
D03*
X473000D02*
D03*
D36*
X831000Y1669000D02*
D03*
X801000D02*
D03*
X728000D02*
D03*
X698000D02*
D03*
D37*
X888000Y1641500D02*
D03*
Y1594500D02*
D03*
D38*
X764000Y1547500D02*
D03*
Y1542500D02*
D03*
Y1537500D02*
D03*
Y1532500D02*
D03*
X794000Y1547500D02*
D03*
Y1542500D02*
D03*
Y1537500D02*
D03*
Y1532500D02*
D03*
D39*
X779000Y1540000D02*
D03*
D40*
X754000Y1563000D02*
D03*
X770000D02*
D03*
X807000D02*
D03*
X791000D02*
D03*
D41*
X488500Y1235000D02*
D03*
X466500Y1245000D02*
D03*
X488500Y1255000D02*
D03*
X543500D02*
D03*
X521500Y1245000D02*
D03*
X543500Y1235000D02*
D03*
X488500Y1332500D02*
D03*
X466500Y1342500D02*
D03*
X488500Y1352500D02*
D03*
X543500D02*
D03*
X521500Y1342500D02*
D03*
X543500Y1332500D02*
D03*
X488500Y1432500D02*
D03*
X466500Y1442500D02*
D03*
X488500Y1452500D02*
D03*
X543500D02*
D03*
X521500Y1442500D02*
D03*
X543500Y1432500D02*
D03*
D42*
X622000Y1462500D02*
D03*
X645000D02*
D03*
X668000D02*
D03*
D43*
X645000Y1522500D02*
D03*
D44*
X380000Y1683617D02*
D03*
Y1716383D02*
D03*
X485000Y1683617D02*
D03*
Y1716383D02*
D03*
D45*
X899600Y1107200D02*
D03*
Y1005600D02*
D03*
Y904000D02*
D03*
Y802400D02*
D03*
Y700800D02*
D03*
Y1132600D02*
D03*
Y1081800D02*
D03*
Y1056400D02*
D03*
Y1031000D02*
D03*
Y954800D02*
D03*
Y929400D02*
D03*
Y878600D02*
D03*
Y853200D02*
D03*
Y777000D02*
D03*
Y751600D02*
D03*
Y726200D02*
D03*
Y675400D02*
D03*
Y650000D02*
D03*
Y980200D02*
D03*
Y827800D02*
D03*
X925000Y650000D02*
D03*
Y675400D02*
D03*
Y700800D02*
D03*
Y726200D02*
D03*
Y751600D02*
D03*
Y777000D02*
D03*
Y802400D02*
D03*
Y827800D02*
D03*
Y853200D02*
D03*
Y878600D02*
D03*
Y904000D02*
D03*
Y929400D02*
D03*
Y954800D02*
D03*
Y980200D02*
D03*
Y1005600D02*
D03*
Y1031000D02*
D03*
Y1056400D02*
D03*
Y1081800D02*
D03*
Y1107200D02*
D03*
Y1132600D02*
D03*
X1000000Y1107200D02*
D03*
Y1005600D02*
D03*
Y904000D02*
D03*
Y802400D02*
D03*
Y700800D02*
D03*
Y1132600D02*
D03*
Y1081800D02*
D03*
Y1056400D02*
D03*
Y1031000D02*
D03*
Y954800D02*
D03*
Y929400D02*
D03*
Y878600D02*
D03*
Y853200D02*
D03*
Y777000D02*
D03*
Y751600D02*
D03*
Y726200D02*
D03*
Y675400D02*
D03*
Y650000D02*
D03*
Y980200D02*
D03*
Y827800D02*
D03*
X974600Y650000D02*
D03*
Y675400D02*
D03*
Y700800D02*
D03*
Y726200D02*
D03*
Y751600D02*
D03*
Y777000D02*
D03*
Y802400D02*
D03*
Y827800D02*
D03*
Y853200D02*
D03*
Y878600D02*
D03*
Y904000D02*
D03*
Y929400D02*
D03*
Y954800D02*
D03*
Y980200D02*
D03*
Y1005600D02*
D03*
Y1031000D02*
D03*
Y1056400D02*
D03*
Y1081800D02*
D03*
Y1107200D02*
D03*
Y1132600D02*
D03*
D46*
X303500Y1594500D02*
D03*
Y1700500D02*
D03*
Y349500D02*
D03*
Y485500D02*
D03*
Y629500D02*
D03*
Y765500D02*
D03*
Y914500D02*
D03*
Y1050500D02*
D03*
D47*
X285000Y1610000D02*
D03*
X322000Y1625000D02*
D03*
X285000Y1670000D02*
D03*
X322000Y1685000D02*
D03*
Y1655000D02*
D03*
X285000Y1640000D02*
D03*
X322000Y380000D02*
D03*
X285000Y365000D02*
D03*
Y395000D02*
D03*
X322000Y410000D02*
D03*
X285000Y455000D02*
D03*
X322000Y470000D02*
D03*
Y440000D02*
D03*
X285000Y425000D02*
D03*
X322000Y660000D02*
D03*
X285000Y645000D02*
D03*
Y675000D02*
D03*
X322000Y690000D02*
D03*
X285000Y735000D02*
D03*
X322000Y750000D02*
D03*
Y720000D02*
D03*
X285000Y705000D02*
D03*
X322000Y945000D02*
D03*
X285000Y930000D02*
D03*
Y960000D02*
D03*
X322000Y975000D02*
D03*
X285000Y1020000D02*
D03*
X322000Y1035000D02*
D03*
Y1005000D02*
D03*
X285000Y990000D02*
D03*
D48*
X902800Y1700000D02*
D03*
X877400D02*
D03*
X852000D02*
D03*
X826600D02*
D03*
X801200D02*
D03*
X775800D02*
D03*
X750400D02*
D03*
X725000D02*
D03*
X699600D02*
D03*
X674200D02*
D03*
X648800D02*
D03*
X623400D02*
D03*
D49*
X1000400Y1277900D02*
D03*
X975000Y1481100D02*
D03*
X1000400D02*
D03*
X975000Y1455700D02*
D03*
X1000400D02*
D03*
X975000Y1430300D02*
D03*
X1000400D02*
D03*
X975000Y1404900D02*
D03*
X1000400Y1404900D02*
D03*
X975000Y1379500D02*
D03*
X1000400Y1379500D02*
D03*
X975000Y1354100D02*
D03*
X1000400D02*
D03*
X975000Y1328700D02*
D03*
X1000400Y1328700D02*
D03*
X975000Y1303300D02*
D03*
X1000400D02*
D03*
X975000Y1277900D02*
D03*
Y1252500D02*
D03*
X1000400D02*
D03*
D50*
X335000Y525000D02*
D03*
Y563100D02*
D03*
Y805950D02*
D03*
Y844050D02*
D03*
Y1090000D02*
D03*
Y1128100D02*
D03*
X970000Y1639050D02*
D03*
Y1600950D02*
D03*
X335000Y1245000D02*
D03*
Y1283100D02*
D03*
Y1345000D02*
D03*
Y1383100D02*
D03*
Y1445000D02*
D03*
Y1483100D02*
D03*
D51*
X424800Y1621900D02*
D03*
Y1647300D02*
D03*
Y1672700D02*
D03*
X529800Y1621900D02*
D03*
Y1647300D02*
D03*
Y1672700D02*
D03*
D52*
X424800Y1698100D02*
D03*
X529800D02*
D03*
D53*
X1000000Y1750000D02*
D03*
Y300000D02*
D03*
X300000D02*
D03*
Y1750000D02*
D03*
D54*
X500500Y613500D02*
D03*
X513500D02*
D03*
X526500D02*
D03*
X539500D02*
D03*
X500500Y626500D02*
D03*
X513500D02*
D03*
X526500D02*
D03*
X539500D02*
D03*
X399500Y906500D02*
D03*
X386500D02*
D03*
X373500D02*
D03*
X360500D02*
D03*
X399500Y893500D02*
D03*
X386500D02*
D03*
X373500D02*
D03*
X360500D02*
D03*
X399500Y626500D02*
D03*
X386500D02*
D03*
X373500D02*
D03*
X360500D02*
D03*
X399500Y613500D02*
D03*
X386500D02*
D03*
X373500D02*
D03*
X360500D02*
D03*
X399500Y327500D02*
D03*
X386500D02*
D03*
X373500D02*
D03*
X360500D02*
D03*
X399500Y314500D02*
D03*
X386500D02*
D03*
X373500D02*
D03*
X360500D02*
D03*
X469500Y906500D02*
D03*
X456500D02*
D03*
X443500D02*
D03*
X430500D02*
D03*
X469500Y893500D02*
D03*
X456500D02*
D03*
X443500D02*
D03*
X430500D02*
D03*
X469500Y626500D02*
D03*
X456500D02*
D03*
X443500D02*
D03*
X430500D02*
D03*
X469500Y613500D02*
D03*
X456500D02*
D03*
X443500D02*
D03*
X430500D02*
D03*
X469500Y327500D02*
D03*
X456500D02*
D03*
X443500D02*
D03*
X430500D02*
D03*
X469500Y314500D02*
D03*
X456500D02*
D03*
X443500D02*
D03*
X430500D02*
D03*
X539500Y906500D02*
D03*
X526500D02*
D03*
X513500D02*
D03*
X500500D02*
D03*
X539500Y893500D02*
D03*
X526500D02*
D03*
X513500D02*
D03*
X500500D02*
D03*
X539500Y327500D02*
D03*
X526500D02*
D03*
X513500D02*
D03*
X500500D02*
D03*
X539500Y314500D02*
D03*
X526500D02*
D03*
X513500D02*
D03*
X500500D02*
D03*
X609500Y906500D02*
D03*
X596500D02*
D03*
X583500D02*
D03*
X570500D02*
D03*
X609500Y893500D02*
D03*
X596500D02*
D03*
X583500D02*
D03*
X570500D02*
D03*
X609500Y626500D02*
D03*
X596500D02*
D03*
X583500D02*
D03*
X570500D02*
D03*
X609500Y613500D02*
D03*
X596500D02*
D03*
X583500D02*
D03*
X570500D02*
D03*
X609500Y327500D02*
D03*
X596500D02*
D03*
X583500D02*
D03*
X570500D02*
D03*
X609500Y314500D02*
D03*
X596500D02*
D03*
X583500D02*
D03*
X570500D02*
D03*
X679500Y906500D02*
D03*
X666500D02*
D03*
X653500D02*
D03*
X640500D02*
D03*
X679500Y893500D02*
D03*
X666500D02*
D03*
X653500D02*
D03*
X640500D02*
D03*
X679500Y626500D02*
D03*
X666500D02*
D03*
X653500D02*
D03*
X640500D02*
D03*
X679500Y613500D02*
D03*
X666500D02*
D03*
X653500D02*
D03*
X640500D02*
D03*
X679500Y327500D02*
D03*
X666500D02*
D03*
X653500D02*
D03*
X640500D02*
D03*
X679500Y314500D02*
D03*
X666500D02*
D03*
X653500D02*
D03*
X640500D02*
D03*
X749500Y906500D02*
D03*
X736500D02*
D03*
X723500D02*
D03*
X710500D02*
D03*
X749500Y893500D02*
D03*
X736500D02*
D03*
X723500D02*
D03*
X710500D02*
D03*
X749500Y626500D02*
D03*
X736500D02*
D03*
X723500D02*
D03*
X710500D02*
D03*
X749500Y613500D02*
D03*
X736500D02*
D03*
X723500D02*
D03*
X710500D02*
D03*
X749500Y327500D02*
D03*
X736500D02*
D03*
X723500D02*
D03*
X710500D02*
D03*
X749500Y314500D02*
D03*
X736500D02*
D03*
X723500D02*
D03*
X710500D02*
D03*
M02*
