G04*
G04 #@! TF.GenerationSoftware,Altium Limited,Altium Designer,24.1.2 (44)*
G04*
G04 Layer_Color=16711935*
%FSLAX44Y44*%
%MOMM*%
G71*
G04*
G04 #@! TF.SameCoordinates,073206A3-7BDE-4070-AB68-1CEBD4695123*
G04*
G04*
G04 #@! TF.FilePolarity,Negative*
G04*
G01*
G75*
%ADD45C,2.0000*%
%ADD46C,0.2032*%
%ADD47C,1.6032*%
%ADD48O,2.2032X3.2032*%
%ADD49O,2.2032X1.8032*%
%ADD50C,2.9000*%
%ADD51C,1.8400*%
%ADD52R,1.8400X1.8400*%
%ADD53C,7.2032*%
%ADD54C,0.5000*%
D45*
X899600Y1107200D02*
D03*
Y1005600D02*
D03*
Y904000D02*
D03*
Y802400D02*
D03*
Y700800D02*
D03*
Y1132600D02*
D03*
Y1081800D02*
D03*
Y1056400D02*
D03*
Y1031000D02*
D03*
Y954800D02*
D03*
Y929400D02*
D03*
Y878600D02*
D03*
Y853200D02*
D03*
Y777000D02*
D03*
Y751600D02*
D03*
Y726200D02*
D03*
Y675400D02*
D03*
Y650000D02*
D03*
Y980200D02*
D03*
Y827800D02*
D03*
X925000Y650000D02*
D03*
Y675400D02*
D03*
Y700800D02*
D03*
Y726200D02*
D03*
Y751600D02*
D03*
Y777000D02*
D03*
Y802400D02*
D03*
Y827800D02*
D03*
Y853200D02*
D03*
Y878600D02*
D03*
Y904000D02*
D03*
Y929400D02*
D03*
Y954800D02*
D03*
Y980200D02*
D03*
Y1005600D02*
D03*
Y1031000D02*
D03*
Y1056400D02*
D03*
Y1081800D02*
D03*
Y1107200D02*
D03*
Y1132600D02*
D03*
X1000000Y1107200D02*
D03*
Y1005600D02*
D03*
Y904000D02*
D03*
Y802400D02*
D03*
Y700800D02*
D03*
Y1132600D02*
D03*
Y1081800D02*
D03*
Y1056400D02*
D03*
Y1031000D02*
D03*
Y954800D02*
D03*
Y929400D02*
D03*
Y878600D02*
D03*
Y853200D02*
D03*
Y777000D02*
D03*
Y751600D02*
D03*
Y726200D02*
D03*
Y675400D02*
D03*
Y650000D02*
D03*
Y980200D02*
D03*
Y827800D02*
D03*
X974600Y650000D02*
D03*
Y675400D02*
D03*
Y700800D02*
D03*
Y726200D02*
D03*
Y751600D02*
D03*
Y777000D02*
D03*
Y802400D02*
D03*
Y827800D02*
D03*
Y853200D02*
D03*
Y878600D02*
D03*
Y904000D02*
D03*
Y929400D02*
D03*
Y954800D02*
D03*
Y980200D02*
D03*
Y1005600D02*
D03*
Y1031000D02*
D03*
Y1056400D02*
D03*
Y1081800D02*
D03*
Y1107200D02*
D03*
Y1132600D02*
D03*
D46*
X303500Y1594500D02*
D03*
Y1700500D02*
D03*
Y349500D02*
D03*
Y485500D02*
D03*
Y629500D02*
D03*
Y765500D02*
D03*
Y914500D02*
D03*
Y1050500D02*
D03*
D47*
X285000Y1610000D02*
D03*
X322000Y1625000D02*
D03*
X285000Y1670000D02*
D03*
X322000Y1685000D02*
D03*
Y1655000D02*
D03*
X285000Y1640000D02*
D03*
X322000Y380000D02*
D03*
X285000Y365000D02*
D03*
Y395000D02*
D03*
X322000Y410000D02*
D03*
X285000Y455000D02*
D03*
X322000Y470000D02*
D03*
Y440000D02*
D03*
X285000Y425000D02*
D03*
X322000Y660000D02*
D03*
X285000Y645000D02*
D03*
Y675000D02*
D03*
X322000Y690000D02*
D03*
X285000Y735000D02*
D03*
X322000Y750000D02*
D03*
Y720000D02*
D03*
X285000Y705000D02*
D03*
X322000Y945000D02*
D03*
X285000Y930000D02*
D03*
Y960000D02*
D03*
X322000Y975000D02*
D03*
X285000Y1020000D02*
D03*
X322000Y1035000D02*
D03*
Y1005000D02*
D03*
X285000Y990000D02*
D03*
D48*
X902800Y1700000D02*
D03*
X877400D02*
D03*
X852000D02*
D03*
X826600D02*
D03*
X801200D02*
D03*
X775800D02*
D03*
X750400D02*
D03*
X725000D02*
D03*
X699600D02*
D03*
X674200D02*
D03*
X648800D02*
D03*
X623400D02*
D03*
D49*
X1000400Y1277900D02*
D03*
X975000Y1481100D02*
D03*
X1000400D02*
D03*
X975000Y1455700D02*
D03*
X1000400D02*
D03*
X975000Y1430300D02*
D03*
X1000400D02*
D03*
X975000Y1404900D02*
D03*
X1000400Y1404900D02*
D03*
X975000Y1379500D02*
D03*
X1000400Y1379500D02*
D03*
X975000Y1354100D02*
D03*
X1000400D02*
D03*
X975000Y1328700D02*
D03*
X1000400Y1328700D02*
D03*
X975000Y1303300D02*
D03*
X1000400D02*
D03*
X975000Y1277900D02*
D03*
Y1252500D02*
D03*
X1000400D02*
D03*
D50*
X335000Y525000D02*
D03*
Y563100D02*
D03*
Y805950D02*
D03*
Y844050D02*
D03*
Y1090000D02*
D03*
Y1128100D02*
D03*
X970000Y1639050D02*
D03*
Y1600950D02*
D03*
X335000Y1245000D02*
D03*
Y1283100D02*
D03*
Y1345000D02*
D03*
Y1383100D02*
D03*
Y1445000D02*
D03*
Y1483100D02*
D03*
D51*
X424800Y1621900D02*
D03*
Y1647300D02*
D03*
Y1672700D02*
D03*
X529800Y1621900D02*
D03*
Y1647300D02*
D03*
Y1672700D02*
D03*
D52*
X424800Y1698100D02*
D03*
X529800D02*
D03*
D53*
X1000000Y1750000D02*
D03*
Y300000D02*
D03*
X300000D02*
D03*
Y1750000D02*
D03*
D54*
X500500Y613500D02*
D03*
X513500D02*
D03*
X526500D02*
D03*
X539500D02*
D03*
X500500Y626500D02*
D03*
X513500D02*
D03*
X526500D02*
D03*
X539500D02*
D03*
X399500Y906500D02*
D03*
X386500D02*
D03*
X373500D02*
D03*
X360500D02*
D03*
X399500Y893500D02*
D03*
X386500D02*
D03*
X373500D02*
D03*
X360500D02*
D03*
X399500Y626500D02*
D03*
X386500D02*
D03*
X373500D02*
D03*
X360500D02*
D03*
X399500Y613500D02*
D03*
X386500D02*
D03*
X373500D02*
D03*
X360500D02*
D03*
X399500Y327500D02*
D03*
X386500D02*
D03*
X373500D02*
D03*
X360500D02*
D03*
X399500Y314500D02*
D03*
X386500D02*
D03*
X373500D02*
D03*
X360500D02*
D03*
X469500Y906500D02*
D03*
X456500D02*
D03*
X443500D02*
D03*
X430500D02*
D03*
X469500Y893500D02*
D03*
X456500D02*
D03*
X443500D02*
D03*
X430500D02*
D03*
X469500Y626500D02*
D03*
X456500D02*
D03*
X443500D02*
D03*
X430500D02*
D03*
X469500Y613500D02*
D03*
X456500D02*
D03*
X443500D02*
D03*
X430500D02*
D03*
X469500Y327500D02*
D03*
X456500D02*
D03*
X443500D02*
D03*
X430500D02*
D03*
X469500Y314500D02*
D03*
X456500D02*
D03*
X443500D02*
D03*
X430500D02*
D03*
X539500Y906500D02*
D03*
X526500D02*
D03*
X513500D02*
D03*
X500500D02*
D03*
X539500Y893500D02*
D03*
X526500D02*
D03*
X513500D02*
D03*
X500500D02*
D03*
X539500Y327500D02*
D03*
X526500D02*
D03*
X513500D02*
D03*
X500500D02*
D03*
X539500Y314500D02*
D03*
X526500D02*
D03*
X513500D02*
D03*
X500500D02*
D03*
X609500Y906500D02*
D03*
X596500D02*
D03*
X583500D02*
D03*
X570500D02*
D03*
X609500Y893500D02*
D03*
X596500D02*
D03*
X583500D02*
D03*
X570500D02*
D03*
X609500Y626500D02*
D03*
X596500D02*
D03*
X583500D02*
D03*
X570500D02*
D03*
X609500Y613500D02*
D03*
X596500D02*
D03*
X583500D02*
D03*
X570500D02*
D03*
X609500Y327500D02*
D03*
X596500D02*
D03*
X583500D02*
D03*
X570500D02*
D03*
X609500Y314500D02*
D03*
X596500D02*
D03*
X583500D02*
D03*
X570500D02*
D03*
X679500Y906500D02*
D03*
X666500D02*
D03*
X653500D02*
D03*
X640500D02*
D03*
X679500Y893500D02*
D03*
X666500D02*
D03*
X653500D02*
D03*
X640500D02*
D03*
X679500Y626500D02*
D03*
X666500D02*
D03*
X653500D02*
D03*
X640500D02*
D03*
X679500Y613500D02*
D03*
X666500D02*
D03*
X653500D02*
D03*
X640500D02*
D03*
X679500Y327500D02*
D03*
X666500D02*
D03*
X653500D02*
D03*
X640500D02*
D03*
X679500Y314500D02*
D03*
X666500D02*
D03*
X653500D02*
D03*
X640500D02*
D03*
X749500Y906500D02*
D03*
X736500D02*
D03*
X723500D02*
D03*
X710500D02*
D03*
X749500Y893500D02*
D03*
X736500D02*
D03*
X723500D02*
D03*
X710500D02*
D03*
X749500Y626500D02*
D03*
X736500D02*
D03*
X723500D02*
D03*
X710500D02*
D03*
X749500Y613500D02*
D03*
X736500D02*
D03*
X723500D02*
D03*
X710500D02*
D03*
X749500Y327500D02*
D03*
X736500D02*
D03*
X723500D02*
D03*
X710500D02*
D03*
X749500Y314500D02*
D03*
X736500D02*
D03*
X723500D02*
D03*
X710500D02*
D03*
M02*
