G04*
G04 #@! TF.GenerationSoftware,Altium Limited,Altium Designer,24.1.2 (44)*
G04*
G04 Layer_Color=8388736*
%FSLAX44Y44*%
%MOMM*%
G71*
G04*
G04 #@! TF.SameCoordinates,711769A2-4870-4503-A1A3-AB06FA0A67A0*
G04*
G04*
G04 #@! TF.FilePolarity,Negative*
G04*
G01*
G75*
G04:AMPARAMS|DCode=17|XSize=1.2032mm|YSize=2.4032mm|CornerRadius=0.3516mm|HoleSize=0mm|Usage=FLASHONLY|Rotation=180.000|XOffset=0mm|YOffset=0mm|HoleType=Round|Shape=RoundedRectangle|*
%AMROUNDEDRECTD17*
21,1,1.2032,1.7000,0,0,180.0*
21,1,0.5000,2.4032,0,0,180.0*
1,1,0.7032,-0.2500,0.8500*
1,1,0.7032,0.2500,0.8500*
1,1,0.7032,0.2500,-0.8500*
1,1,0.7032,-0.2500,-0.8500*
%
%ADD17ROUNDEDRECTD17*%
G04:AMPARAMS|DCode=18|XSize=2.2032mm|YSize=7.7032mm|CornerRadius=0.6016mm|HoleSize=0mm|Usage=FLASHONLY|Rotation=180.000|XOffset=0mm|YOffset=0mm|HoleType=Round|Shape=RoundedRectangle|*
%AMROUNDEDRECTD18*
21,1,2.2032,6.5000,0,0,180.0*
21,1,1.0000,7.7032,0,0,180.0*
1,1,1.2032,-0.5000,3.2500*
1,1,1.2032,0.5000,3.2500*
1,1,1.2032,0.5000,-3.2500*
1,1,1.2032,-0.5000,-3.2500*
%
%ADD18ROUNDEDRECTD18*%
%ADD19R,4.2032X0.9032*%
%ADD20R,4.2032X1.4532*%
%ADD21R,1.1032X1.0032*%
%ADD22R,1.0032X1.1032*%
G04:AMPARAMS|DCode=23|XSize=0.2032mm|YSize=0.2032mm|CornerRadius=0mm|HoleSize=0mm|Usage=FLASHONLY|Rotation=180.000|XOffset=0mm|YOffset=0mm|HoleType=Round|Shape=RoundedRectangle|*
%AMROUNDEDRECTD23*
21,1,0.2032,0.2032,0,0,180.0*
21,1,0.2032,0.2032,0,0,180.0*
1,1,0.0000,-0.1016,0.1016*
1,1,0.0000,0.1016,0.1016*
1,1,0.0000,0.1016,-0.1016*
1,1,0.0000,-0.1016,-0.1016*
%
%ADD23ROUNDEDRECTD23*%
%ADD24C,7.2032*%
D17*
X1147500Y298500D02*
D03*
X1162500D02*
D03*
X1177500D02*
D03*
X1192500D02*
D03*
X1207500D02*
D03*
X1222500D02*
D03*
X1237500D02*
D03*
X1252500D02*
D03*
X747500D02*
D03*
X762500D02*
D03*
X777500D02*
D03*
X792500D02*
D03*
X807500D02*
D03*
X822500D02*
D03*
X837500D02*
D03*
X852500D02*
D03*
X1547500D02*
D03*
X1562500D02*
D03*
X1577500D02*
D03*
X1592500D02*
D03*
X1607500D02*
D03*
X1622500D02*
D03*
X1637500D02*
D03*
X1652500D02*
D03*
X537500Y298000D02*
D03*
X522500D02*
D03*
X507500D02*
D03*
X492500D02*
D03*
X477500D02*
D03*
X462500D02*
D03*
D18*
X1108500Y250500D02*
D03*
X1291500D02*
D03*
X708500D02*
D03*
X891500D02*
D03*
X1508500D02*
D03*
X1691500D02*
D03*
X576500Y250000D02*
D03*
X423500D02*
D03*
D19*
X1750000Y664000D02*
D03*
Y636000D02*
D03*
Y764000D02*
D03*
Y736000D02*
D03*
Y964000D02*
D03*
Y936000D02*
D03*
Y1164000D02*
D03*
Y1136000D02*
D03*
Y864000D02*
D03*
Y836000D02*
D03*
Y1064000D02*
D03*
Y1036000D02*
D03*
Y1264000D02*
D03*
Y1236000D02*
D03*
X1850000Y1064000D02*
D03*
Y1036000D02*
D03*
Y964000D02*
D03*
Y936000D02*
D03*
Y664000D02*
D03*
Y636000D02*
D03*
Y864000D02*
D03*
Y836000D02*
D03*
Y764000D02*
D03*
Y736000D02*
D03*
Y1164000D02*
D03*
Y1136000D02*
D03*
Y1264000D02*
D03*
Y1236000D02*
D03*
X350000Y1264000D02*
D03*
Y1236000D02*
D03*
X450000Y1264000D02*
D03*
Y1236000D02*
D03*
X550000Y1264000D02*
D03*
Y1236000D02*
D03*
X650000Y1264000D02*
D03*
Y1236000D02*
D03*
X750000Y1264000D02*
D03*
Y1236000D02*
D03*
X850000Y1264000D02*
D03*
Y1236000D02*
D03*
X950000Y1264000D02*
D03*
Y1236000D02*
D03*
X1050000Y1264000D02*
D03*
Y1236000D02*
D03*
X1150000Y1264000D02*
D03*
Y1236000D02*
D03*
X1250000Y1264000D02*
D03*
Y1236000D02*
D03*
X1350000Y1264000D02*
D03*
Y1236000D02*
D03*
X1450000Y1264000D02*
D03*
Y1236000D02*
D03*
X1550000Y1264000D02*
D03*
Y1236000D02*
D03*
X1650000Y1264000D02*
D03*
Y1236000D02*
D03*
X1950000Y1264000D02*
D03*
Y1236000D02*
D03*
X2050000Y1264000D02*
D03*
Y1236000D02*
D03*
X350000Y1164000D02*
D03*
Y1136000D02*
D03*
X450000Y1164000D02*
D03*
Y1136000D02*
D03*
X550000Y1164000D02*
D03*
Y1136000D02*
D03*
X650000Y1164000D02*
D03*
Y1136000D02*
D03*
X750000Y1164000D02*
D03*
Y1136000D02*
D03*
X850000Y1164000D02*
D03*
Y1136000D02*
D03*
X950000Y1164000D02*
D03*
Y1136000D02*
D03*
X1050000Y1164000D02*
D03*
Y1136000D02*
D03*
X1150000Y1164000D02*
D03*
Y1136000D02*
D03*
X1250000Y1164000D02*
D03*
Y1136000D02*
D03*
X1350000Y1164000D02*
D03*
Y1136000D02*
D03*
X1450000Y1164000D02*
D03*
Y1136000D02*
D03*
X1550000Y1164000D02*
D03*
Y1136000D02*
D03*
X1650000Y1164000D02*
D03*
Y1136000D02*
D03*
X1950000Y1164000D02*
D03*
Y1136000D02*
D03*
X2050000Y1164000D02*
D03*
Y1136000D02*
D03*
X350000Y1064000D02*
D03*
Y1036000D02*
D03*
X450000Y1064000D02*
D03*
Y1036000D02*
D03*
X550000Y1064000D02*
D03*
Y1036000D02*
D03*
X650000Y1064000D02*
D03*
Y1036000D02*
D03*
X750000Y1064000D02*
D03*
Y1036000D02*
D03*
X850000Y1064000D02*
D03*
Y1036000D02*
D03*
X950000Y1064000D02*
D03*
Y1036000D02*
D03*
X1050000Y1064000D02*
D03*
Y1036000D02*
D03*
X1150000Y1064000D02*
D03*
Y1036000D02*
D03*
X1250000Y1064000D02*
D03*
Y1036000D02*
D03*
X1350000Y1064000D02*
D03*
Y1036000D02*
D03*
X1450000Y1064000D02*
D03*
Y1036000D02*
D03*
X1550000Y1064000D02*
D03*
Y1036000D02*
D03*
X1650000Y1064000D02*
D03*
Y1036000D02*
D03*
X1950000Y1064000D02*
D03*
Y1036000D02*
D03*
X2050000Y1064000D02*
D03*
Y1036000D02*
D03*
X350000Y964000D02*
D03*
Y936000D02*
D03*
X450000Y964000D02*
D03*
Y936000D02*
D03*
X550000Y964000D02*
D03*
Y936000D02*
D03*
X650000Y964000D02*
D03*
Y936000D02*
D03*
X750000Y964000D02*
D03*
Y936000D02*
D03*
X850000Y964000D02*
D03*
Y936000D02*
D03*
X950000Y964000D02*
D03*
Y936000D02*
D03*
X1050000Y964000D02*
D03*
Y936000D02*
D03*
X1150000Y964000D02*
D03*
Y936000D02*
D03*
X1250000Y964000D02*
D03*
Y936000D02*
D03*
X1350000Y964000D02*
D03*
Y936000D02*
D03*
X1450000Y964000D02*
D03*
Y936000D02*
D03*
X1550000Y964000D02*
D03*
Y936000D02*
D03*
X1650000Y964000D02*
D03*
Y936000D02*
D03*
X1950000Y964000D02*
D03*
Y936000D02*
D03*
X2050000Y964000D02*
D03*
Y936000D02*
D03*
X350000Y864000D02*
D03*
Y836000D02*
D03*
X450000Y864000D02*
D03*
Y836000D02*
D03*
X550000Y864000D02*
D03*
Y836000D02*
D03*
X650000Y864000D02*
D03*
Y836000D02*
D03*
X750000Y864000D02*
D03*
Y836000D02*
D03*
X850000Y864000D02*
D03*
Y836000D02*
D03*
X950000Y864000D02*
D03*
Y836000D02*
D03*
X1050000Y864000D02*
D03*
Y836000D02*
D03*
X1150000Y864000D02*
D03*
Y836000D02*
D03*
X1250000Y864000D02*
D03*
Y836000D02*
D03*
X1350000Y864000D02*
D03*
Y836000D02*
D03*
X1450000Y864000D02*
D03*
Y836000D02*
D03*
X1550000Y864000D02*
D03*
Y836000D02*
D03*
X1650000Y864000D02*
D03*
Y836000D02*
D03*
X1950000Y864000D02*
D03*
Y836000D02*
D03*
X2050000Y864000D02*
D03*
Y836000D02*
D03*
X350000Y764000D02*
D03*
Y736000D02*
D03*
X450000Y764000D02*
D03*
Y736000D02*
D03*
X550000Y764000D02*
D03*
Y736000D02*
D03*
X650000Y764000D02*
D03*
Y736000D02*
D03*
X750000Y764000D02*
D03*
Y736000D02*
D03*
X850000Y764000D02*
D03*
Y736000D02*
D03*
X950000Y764000D02*
D03*
Y736000D02*
D03*
X1050000Y764000D02*
D03*
Y736000D02*
D03*
X1150000Y764000D02*
D03*
Y736000D02*
D03*
X1250000Y764000D02*
D03*
Y736000D02*
D03*
X1350000Y764000D02*
D03*
Y736000D02*
D03*
X1450000Y764000D02*
D03*
Y736000D02*
D03*
X1550000Y764000D02*
D03*
Y736000D02*
D03*
X1650000Y764000D02*
D03*
Y736000D02*
D03*
X1950000Y764000D02*
D03*
Y736000D02*
D03*
X2050000Y764000D02*
D03*
Y736000D02*
D03*
X350000Y664000D02*
D03*
Y636000D02*
D03*
X450000Y664000D02*
D03*
Y636000D02*
D03*
X550000Y664000D02*
D03*
Y636000D02*
D03*
X650000Y664000D02*
D03*
Y636000D02*
D03*
X750000Y664000D02*
D03*
Y636000D02*
D03*
X850000Y664000D02*
D03*
Y636000D02*
D03*
X950000Y664000D02*
D03*
Y636000D02*
D03*
X1050000Y664000D02*
D03*
Y636000D02*
D03*
X1150000Y664000D02*
D03*
Y636000D02*
D03*
X1250000Y664000D02*
D03*
Y636000D02*
D03*
X1350000Y664000D02*
D03*
Y636000D02*
D03*
X1450000Y664000D02*
D03*
Y636000D02*
D03*
X1550000Y664000D02*
D03*
Y636000D02*
D03*
X1650000Y664000D02*
D03*
Y636000D02*
D03*
X1950000Y664000D02*
D03*
Y636000D02*
D03*
X2050000Y664000D02*
D03*
Y636000D02*
D03*
X350000Y564000D02*
D03*
Y536000D02*
D03*
X450000Y564000D02*
D03*
Y536000D02*
D03*
X550000Y564000D02*
D03*
Y536000D02*
D03*
X650000Y564000D02*
D03*
Y536000D02*
D03*
X750000Y564000D02*
D03*
Y536000D02*
D03*
X850000Y564000D02*
D03*
Y536000D02*
D03*
X950000Y564000D02*
D03*
Y536000D02*
D03*
X1050000Y564000D02*
D03*
Y536000D02*
D03*
X1150000Y564000D02*
D03*
Y536000D02*
D03*
X1250000Y564000D02*
D03*
Y536000D02*
D03*
X1350000Y564000D02*
D03*
Y536000D02*
D03*
X1450000Y564000D02*
D03*
Y536000D02*
D03*
X1550000Y564000D02*
D03*
Y536000D02*
D03*
X1650000Y564000D02*
D03*
Y536000D02*
D03*
X1750000Y564000D02*
D03*
Y536000D02*
D03*
X1850000Y564000D02*
D03*
Y536000D02*
D03*
X1950000Y564000D02*
D03*
Y536000D02*
D03*
X2050000Y564000D02*
D03*
Y536000D02*
D03*
D20*
X1750000Y650000D02*
D03*
Y750000D02*
D03*
Y950000D02*
D03*
Y1150000D02*
D03*
Y850000D02*
D03*
Y1050000D02*
D03*
Y1250000D02*
D03*
X1850000Y1050000D02*
D03*
Y950000D02*
D03*
Y650000D02*
D03*
Y850000D02*
D03*
Y750000D02*
D03*
Y1150000D02*
D03*
Y1250000D02*
D03*
X350000D02*
D03*
X450000D02*
D03*
X550000D02*
D03*
X650000D02*
D03*
X750000D02*
D03*
X850000D02*
D03*
X950000D02*
D03*
X1050000D02*
D03*
X1150000D02*
D03*
X1250000D02*
D03*
X1350000D02*
D03*
X1450000D02*
D03*
X1550000D02*
D03*
X1650000D02*
D03*
X1950000D02*
D03*
X2050000D02*
D03*
X350000Y1150000D02*
D03*
X450000D02*
D03*
X550000D02*
D03*
X650000D02*
D03*
X750000D02*
D03*
X850000D02*
D03*
X950000D02*
D03*
X1050000D02*
D03*
X1150000D02*
D03*
X1250000D02*
D03*
X1350000D02*
D03*
X1450000D02*
D03*
X1550000D02*
D03*
X1650000D02*
D03*
X1950000D02*
D03*
X2050000D02*
D03*
X350000Y1050000D02*
D03*
X450000D02*
D03*
X550000D02*
D03*
X650000D02*
D03*
X750000D02*
D03*
X850000D02*
D03*
X950000D02*
D03*
X1050000D02*
D03*
X1150000D02*
D03*
X1250000D02*
D03*
X1350000D02*
D03*
X1450000D02*
D03*
X1550000D02*
D03*
X1650000D02*
D03*
X1950000D02*
D03*
X2050000D02*
D03*
X350000Y950000D02*
D03*
X450000D02*
D03*
X550000D02*
D03*
X650000D02*
D03*
X750000D02*
D03*
X850000D02*
D03*
X950000D02*
D03*
X1050000D02*
D03*
X1150000D02*
D03*
X1250000D02*
D03*
X1350000D02*
D03*
X1450000D02*
D03*
X1550000D02*
D03*
X1650000D02*
D03*
X1950000D02*
D03*
X2050000D02*
D03*
X350000Y850000D02*
D03*
X450000D02*
D03*
X550000D02*
D03*
X650000D02*
D03*
X750000D02*
D03*
X850000D02*
D03*
X950000D02*
D03*
X1050000D02*
D03*
X1150000D02*
D03*
X1250000D02*
D03*
X1350000D02*
D03*
X1450000D02*
D03*
X1550000D02*
D03*
X1650000D02*
D03*
X1950000D02*
D03*
X2050000D02*
D03*
X350000Y750000D02*
D03*
X450000D02*
D03*
X550000D02*
D03*
X650000D02*
D03*
X750000D02*
D03*
X850000D02*
D03*
X950000D02*
D03*
X1050000D02*
D03*
X1150000D02*
D03*
X1250000D02*
D03*
X1350000D02*
D03*
X1450000D02*
D03*
X1550000D02*
D03*
X1650000D02*
D03*
X1950000D02*
D03*
X2050000D02*
D03*
X350000Y650000D02*
D03*
X450000D02*
D03*
X550000D02*
D03*
X650000D02*
D03*
X750000D02*
D03*
X850000D02*
D03*
X950000D02*
D03*
X1050000D02*
D03*
X1150000D02*
D03*
X1250000D02*
D03*
X1350000D02*
D03*
X1450000D02*
D03*
X1550000D02*
D03*
X1650000D02*
D03*
X1950000D02*
D03*
X2050000D02*
D03*
X350000Y550000D02*
D03*
X450000D02*
D03*
X550000D02*
D03*
X650000D02*
D03*
X750000D02*
D03*
X850000D02*
D03*
X950000D02*
D03*
X1050000D02*
D03*
X1150000D02*
D03*
X1250000D02*
D03*
X1350000D02*
D03*
X1450000D02*
D03*
X1550000D02*
D03*
X1650000D02*
D03*
X1750000D02*
D03*
X1850000D02*
D03*
X1950000D02*
D03*
X2050000D02*
D03*
D21*
X1797000Y900000D02*
D03*
X1813000D02*
D03*
X1194500D02*
D03*
X1210500D02*
D03*
X594500D02*
D03*
X610500D02*
D03*
D22*
X382500Y383000D02*
D03*
Y367000D02*
D03*
X445000Y383000D02*
D03*
Y367000D02*
D03*
X507500Y383000D02*
D03*
Y367000D02*
D03*
D23*
X1200000Y250000D02*
D03*
X800000D02*
D03*
X1600000D02*
D03*
X500000D02*
D03*
D24*
X2100000Y450000D02*
D03*
X1500000Y475000D02*
D03*
X900000D02*
D03*
X300000D02*
D03*
X2100000Y1325000D02*
D03*
X1500000D02*
D03*
X900000D02*
D03*
X300000D02*
D03*
M02*
